<svg width="1200" height="860" viewBox="0 0 1200 860" fill="none" xmlns="http://www.w3.org/2000/svg">
    <rect width="1200" height="860" rx="60" fill="#F4EFE6"/>
    <circle cx="980" cy="160" r="90" fill="#F0C27B"/>
    <path d="M0 610C126 540 229 530 352 590C430 628 497 653 593 641C703 628 803 549 915 549C1017 549 1101 594 1200 650V860H0V610Z" fill="#DCE7D5"/>
    <path d="M0 690C115 655 234 665 343 716C444 763 574 777 702 742C803 714 887 656 983 645C1064 636 1124 658 1200 704V860H0V690Z" fill="#9DB89E"/>
    <path d="M256 430L378 324L502 430V614H256V430Z" fill="#F7F2E7"/>
    <path d="M310 614V478H448V614H310Z" fill="#D98936"/>
    <path d="M312 418L379 366L446 418H312Z" fill="#A44F3F"/>
    <path d="M670 608C670 523 739 454 824 454C909 454 978 523 978 608H670Z" fill="#F7F2E7"/>
    <path d="M742 608V542H906V608H742Z" fill="#D98936"/>
    <path d="M700 608H948V652H700V608Z" fill="#2E5E36"/>
    <path d="M148 642C170 578 234 535 308 535C382 535 446 578 468 642H148Z" fill="#2E5E36"/>
    <circle cx="824" cy="514" r="22" fill="#2E5E36"/>
    <circle cx="824" cy="514" r="10" fill="#F4EFE6"/>
    <path d="M1050 290C1050 244 1087 206 1134 206C1143 206 1151 207 1159 210C1158 260 1137 310 1098 339C1068 327 1050 311 1050 290Z" fill="#2E5E36"/>
    <path d="M980 348C980 301 1019 264 1068 264C1077 264 1086 265 1094 268C1091 317 1068 364 1025 394C995 383 980 367 980 348Z" fill="#D98936"/>
</svg>
