<svg width="900" height="650" viewBox="0 0 900 650" fill="none" xmlns="http://www.w3.org/2000/svg">
    <rect width="900" height="650" rx="40" fill="#FFF8E7"/>
    <ellipse cx="450" cy="556" rx="242" ry="40" fill="#F4D7B9"/>
    <path d="M314 212H586V310C586 338 575 365 554 385L536 402V496C536 528 510 554 478 554H422C390 554 364 528 364 496V402L346 385C325 365 314 338 314 310V212Z" fill="#F0B75A"/>
    <path d="M334 170H566V242H334V170Z" fill="#F4EFE6"/>
    <path d="M348 334H552" stroke="#D98936" stroke-width="18" stroke-linecap="round"/>
    <path d="M348 390H552" stroke="#D98936" stroke-width="18" stroke-linecap="round"/>
    <path d="M382 118C361 149 359 185 376 221C405 204 427 172 436 138C420 124 403 117 382 118Z" fill="#2E5E36"/>
    <path d="M520 108C500 136 494 171 507 206C538 192 564 162 575 128C558 115 540 109 520 108Z" fill="#3D7D49"/>
</svg>
